<mxfile host="app.diagrams.net" modified="2021-04-26T22:28:48.144Z" agent="5.0 (X11; Linux x86_64) AppleWebKit/537.36 (KHTML, like Gecko) Chrome/89.0.4389.114 Safari/537.36" etag="bVlYSaCgbyScGKbJsUAm" version="14.5.10" type="github">
  <diagram id="Xg_5zEsKugVQueyGtk5E" name="Page-1">
    <mxGraphModel dx="677" dy="369" grid="1" gridSize="10" guides="1" tooltips="1" connect="1" arrows="1" fold="1" page="1" pageScale="1" pageWidth="850" pageHeight="1100" math="0" shadow="0">
      <root>
        <mxCell id="0" />
        <mxCell id="1" parent="0" />
        <mxCell id="A8xb-Ql0ByVdc4NQ_89k-1" value="" style="whiteSpace=wrap;html=1;aspect=fixed;" vertex="1" parent="1">
          <mxGeometry x="240" y="180" width="390" height="390" as="geometry" />
        </mxCell>
        <mxCell id="A8xb-Ql0ByVdc4NQ_89k-2" value="Telefone Celular" style="rounded=0;whiteSpace=wrap;html=1;" vertex="1" parent="1">
          <mxGeometry x="240" y="180" width="390" height="30" as="geometry" />
        </mxCell>
        <mxCell id="A8xb-Ql0ByVdc4NQ_89k-3" value="Fazer ligação" style="ellipse;whiteSpace=wrap;html=1;" vertex="1" parent="1">
          <mxGeometry x="270" y="230" width="90" height="40" as="geometry" />
        </mxCell>
        <mxCell id="A8xb-Ql0ByVdc4NQ_89k-4" value="Receber ligação" style="ellipse;whiteSpace=wrap;html=1;" vertex="1" parent="1">
          <mxGeometry x="267.5" y="310" width="95" height="40" as="geometry" />
        </mxCell>
        <mxCell id="A8xb-Ql0ByVdc4NQ_89k-5" value="Fazer uso programação" style="ellipse;whiteSpace=wrap;html=1;" vertex="1" parent="1">
          <mxGeometry x="255" y="400" width="115" height="50" as="geometry" />
        </mxCell>
        <mxCell id="A8xb-Ql0ByVdc4NQ_89k-6" value="Identificar destinatário" style="ellipse;whiteSpace=wrap;html=1;" vertex="1" parent="1">
          <mxGeometry x="500" y="230" width="110" height="50" as="geometry" />
        </mxCell>
        <mxCell id="A8xb-Ql0ByVdc4NQ_89k-15" style="edgeStyle=orthogonalEdgeStyle;rounded=0;orthogonalLoop=1;jettySize=auto;html=1;entryX=1;entryY=0.5;entryDx=0;entryDy=0;" edge="1" parent="1" source="A8xb-Ql0ByVdc4NQ_89k-7" target="A8xb-Ql0ByVdc4NQ_89k-3">
          <mxGeometry relative="1" as="geometry" />
        </mxCell>
        <mxCell id="A8xb-Ql0ByVdc4NQ_89k-16" value="&amp;lt;&amp;lt;extend&amp;gt;&amp;gt;" style="edgeLabel;html=1;align=center;verticalAlign=middle;resizable=0;points=[];" vertex="1" connectable="0" parent="A8xb-Ql0ByVdc4NQ_89k-15">
          <mxGeometry x="0.094" y="-1" relative="1" as="geometry">
            <mxPoint as="offset" />
          </mxGeometry>
        </mxCell>
        <mxCell id="A8xb-Ql0ByVdc4NQ_89k-7" value="Fazer ligação em conferência" style="ellipse;whiteSpace=wrap;html=1;" vertex="1" parent="1">
          <mxGeometry x="480" y="340" width="130" height="60" as="geometry" />
        </mxCell>
        <mxCell id="A8xb-Ql0ByVdc4NQ_89k-8" value="Receber ligação adicional" style="ellipse;whiteSpace=wrap;html=1;" vertex="1" parent="1">
          <mxGeometry x="470" y="470" width="130" height="50" as="geometry" />
        </mxCell>
        <mxCell id="A8xb-Ql0ByVdc4NQ_89k-14" value="t" style="edgeStyle=orthogonalEdgeStyle;rounded=0;orthogonalLoop=1;jettySize=auto;html=1;" edge="1" parent="1" source="A8xb-Ql0ByVdc4NQ_89k-9" target="A8xb-Ql0ByVdc4NQ_89k-6">
          <mxGeometry relative="1" as="geometry">
            <Array as="points">
              <mxPoint x="555" y="220" />
            </Array>
          </mxGeometry>
        </mxCell>
        <mxCell id="A8xb-Ql0ByVdc4NQ_89k-9" value="Rede celular" style="shape=umlActor;verticalLabelPosition=bottom;verticalAlign=top;html=1;outlineConnect=0;" vertex="1" parent="1">
          <mxGeometry x="130" y="210" width="30" height="60" as="geometry" />
        </mxCell>
        <mxCell id="A8xb-Ql0ByVdc4NQ_89k-11" style="edgeStyle=orthogonalEdgeStyle;rounded=0;orthogonalLoop=1;jettySize=auto;html=1;entryX=0;entryY=0.5;entryDx=0;entryDy=0;" edge="1" parent="1" source="A8xb-Ql0ByVdc4NQ_89k-10" target="A8xb-Ql0ByVdc4NQ_89k-3">
          <mxGeometry relative="1" as="geometry">
            <Array as="points">
              <mxPoint x="220" y="400" />
              <mxPoint x="220" y="250" />
            </Array>
          </mxGeometry>
        </mxCell>
        <mxCell id="A8xb-Ql0ByVdc4NQ_89k-12" style="edgeStyle=orthogonalEdgeStyle;rounded=0;orthogonalLoop=1;jettySize=auto;html=1;entryX=0;entryY=0.5;entryDx=0;entryDy=0;" edge="1" parent="1" source="A8xb-Ql0ByVdc4NQ_89k-10" target="A8xb-Ql0ByVdc4NQ_89k-4">
          <mxGeometry relative="1" as="geometry">
            <Array as="points">
              <mxPoint x="220" y="400" />
              <mxPoint x="220" y="330" />
            </Array>
          </mxGeometry>
        </mxCell>
        <mxCell id="A8xb-Ql0ByVdc4NQ_89k-13" style="edgeStyle=orthogonalEdgeStyle;rounded=0;orthogonalLoop=1;jettySize=auto;html=1;" edge="1" parent="1" source="A8xb-Ql0ByVdc4NQ_89k-10" target="A8xb-Ql0ByVdc4NQ_89k-5">
          <mxGeometry relative="1" as="geometry">
            <Array as="points">
              <mxPoint x="220" y="400" />
              <mxPoint x="220" y="425" />
            </Array>
          </mxGeometry>
        </mxCell>
        <mxCell id="A8xb-Ql0ByVdc4NQ_89k-10" value="Usuário" style="shape=umlActor;verticalLabelPosition=bottom;verticalAlign=top;html=1;outlineConnect=0;" vertex="1" parent="1">
          <mxGeometry x="150" y="370" width="30" height="60" as="geometry" />
        </mxCell>
      </root>
    </mxGraphModel>
  </diagram>
</mxfile>
